<svg width="136" height="128" viewBox="0 0 136 128" fill="none" xmlns="http://www.w3.org/2000/svg">
<g filter="url(#filter0_d)">
<path d="M96.7666 18.9879C96.7666 22.6576 96.0397 26.1212 94.586 29.3786C93.1322 32.5948 91.2839 35.5636 89.041 38.285C86.8396 41.0064 84.4098 43.4803 81.7516 45.7069C79.1349 47.8923 76.6427 49.789 74.2752 51.3971C77.5981 51.6857 80.9001 52.4898 84.1814 53.8092C87.5042 55.0875 90.474 56.8811 93.0907 59.1902C95.7489 61.458 97.888 64.2206 99.5079 67.478C101.169 70.6942 102 74.364 102 78.4873C102 81.8684 101.502 84.9197 100.505 87.641C99.5494 90.3212 98.2618 92.7333 96.642 94.8775C95.0221 96.9803 93.1738 98.7946 91.097 100.32C89.0618 101.846 86.985 103.103 84.8667 104.093C82.7484 105.083 80.6509 105.804 78.5741 106.258C76.5389 106.753 74.7321 107 73.1538 107C69.1664 107 65.8436 106.526 63.1853 105.577C60.5686 104.629 58.4711 103.475 56.8927 102.114C55.3559 100.712 54.276 99.2482 53.653 97.7225C53.03 96.1969 52.7185 94.8568 52.7185 93.7023C52.7185 91.9293 53.0923 90.2387 53.8399 88.6306C54.6291 86.9813 55.6675 85.4969 56.955 84.1775C58.2426 82.858 59.7379 81.7035 61.4408 80.7139C63.1438 79.683 64.909 78.8996 66.7366 78.3636L68.045 80.4046C65.4282 81.8065 63.4968 83.6208 62.2508 85.8474C61.0047 88.0328 60.3817 90.2387 60.3817 92.4653C60.3817 93.7023 60.6309 95.0012 61.1293 96.3618C61.6693 97.6813 62.4585 98.8977 63.4968 100.011C64.5768 101.124 65.9059 102.052 67.4842 102.794C69.1041 103.495 70.994 103.846 73.1538 103.846C76.3105 103.846 79.2595 103.268 82.0008 102.114C84.7421 100.918 87.1096 99.2894 89.1033 97.2277C91.1385 95.1249 92.7169 92.6715 93.8383 89.8676C95.0013 87.0638 95.5828 84.0331 95.5828 80.7757C95.5828 77.4358 94.8767 74.4877 93.4645 71.9312C92.0938 69.3748 90.2455 67.2306 87.9196 65.4988C85.6351 63.7258 82.9769 62.3857 79.9448 61.4786C76.9543 60.5715 73.8391 60.1179 70.5994 60.1179C69.2702 60.1179 67.9619 60.2004 66.6743 60.3653C65.3867 60.489 64.1614 60.6746 62.9984 60.922C61.877 61.1281 60.8594 61.3343 59.9456 61.5405C59.0318 61.7466 58.3257 61.9116 57.8273 62.0353L57.2043 61.4168L62.9361 52.5723C63.393 52.4486 63.9122 52.3042 64.4937 52.1393C64.9921 52.0156 65.5944 51.8919 66.3005 51.7682C67.0066 51.6033 67.7957 51.4796 68.668 51.3971C70.6617 50.2013 72.7384 48.6963 74.8983 46.8821C77.0996 45.0266 79.0933 42.9031 80.8793 40.5116C82.7069 38.0788 84.2022 35.3574 85.3651 32.3474C86.5697 29.3374 87.1719 26.0593 87.1719 22.5133C87.1719 16.5345 85.739 12.0195 82.873 8.96821C80.0071 5.91696 75.9159 4.39133 70.5994 4.39133C67.5258 4.39133 64.4314 5.05106 61.3162 6.37052C58.2011 7.64875 55.1898 9.62794 52.2823 12.3081C49.4164 14.9882 46.7166 18.3694 44.183 22.4514C41.6909 26.5335 39.5103 31.3372 37.6412 36.8624C35.8136 42.3877 34.3599 48.6757 33.28 55.7266C32.2001 62.7775 31.6601 70.5911 31.6601 79.1676C31.6601 82.7137 31.8055 85.9917 32.0962 89.0017C32.4285 92.0117 32.9062 94.6301 33.5292 96.8567C34.1937 99.042 35.0037 100.753 35.959 101.99C36.9143 103.227 38.0358 103.846 39.3233 103.846C40.6109 103.846 41.6285 102.918 42.3762 101.062C43.1654 99.1657 43.7468 96.7123 44.1207 93.7023C44.536 90.6511 44.7852 87.2493 44.8683 83.4971C44.9929 79.7449 45.0552 75.9721 45.0552 72.1786C45.0552 66.406 44.9721 60.9838 44.806 55.9121C44.6399 50.7992 44.4529 46.243 44.2453 42.2434C44.0791 38.2437 43.913 34.9039 43.7468 32.2237C43.5807 29.5435 43.4769 27.7499 43.4353 26.8428L50.6625 24.678C50.8701 25.0079 51.1609 25.9975 51.5347 27.6468C51.9085 29.2961 52.2823 31.4815 52.6562 34.2029C53.03 36.883 53.3415 40.0168 53.5907 43.604C53.8814 47.1501 54.0268 50.9848 54.0268 55.1081C54.0268 62.0765 53.8191 68.1996 53.4038 73.4775C53.03 78.7141 52.49 83.2703 51.7839 87.1462C51.0778 90.9809 50.2471 94.1765 49.2918 96.7329C48.378 99.2894 47.3604 101.33 46.239 102.856C45.159 104.34 44.0168 105.392 42.8123 106.01C41.6493 106.67 40.4863 107 39.3233 107C36.7897 107 34.5053 106.134 32.47 104.402C30.4763 102.712 28.7734 100.465 27.3612 97.6607C25.949 94.8156 24.8691 91.5788 24.1215 87.9503C23.3738 84.2805 23 80.5077 23 76.6318C23 71.0653 23.5192 65.3133 24.5576 59.3757C25.596 53.4382 27.1328 47.6449 29.168 41.996C31.2032 36.3058 33.7161 30.9249 36.7066 25.8532C39.6972 20.7403 43.1446 16.2871 47.0489 12.4936C50.9532 8.65896 55.2936 5.62832 60.0702 3.40173C64.8883 1.13391 70.1009 0 75.7082 0C78.9064 0 81.7931 0.432948 84.3683 1.29884C86.985 2.12351 89.2071 3.3605 91.0347 5.00983C92.8623 6.61792 94.2744 8.59711 95.2713 10.9474C96.2681 13.2977 96.7666 15.9778 96.7666 18.9879Z" fill="white"/>
</g>
<path d="M0 127.866V118.134H4.49316C6.04961 118.134 7.23017 118.361 8.03483 118.816C8.83948 119.266 9.24181 119.927 9.24181 120.801C9.24181 121.278 9.08029 121.699 8.75726 122.064C8.43422 122.425 7.9849 122.69 7.40931 122.86C8.06713 122.984 8.58399 123.236 8.95989 123.615C9.34166 123.994 9.53255 124.457 9.53255 125.005C9.53255 125.941 9.13903 126.65 8.35199 127.131C7.56495 127.612 6.44313 127.857 4.98653 127.866H0ZM2.64303 123.628V126.255H4.90724C5.52982 126.255 6.01437 126.144 6.3609 125.921C6.71331 125.694 6.88951 125.382 6.88951 124.985C6.88951 124.094 6.28161 123.642 5.06582 123.628H2.64303ZM2.64303 122.211H4.59888C5.93215 122.193 6.59878 121.79 6.59878 121.001C6.59878 120.56 6.42845 120.244 6.08779 120.052C5.75301 119.856 5.22146 119.758 4.49316 119.758H2.64303V122.211Z" fill="white"/>
<path d="M21.472 125.861H16.8379L15.9569 127.866H13.1465L17.9215 118.134H20.3708L25.1723 127.866H22.3618L21.472 125.861ZM17.5515 124.237H20.7584L19.1461 120.594L17.5515 124.237Z" fill="white"/>
<path d="M37.6756 119.758H33.7463V127.866H31.1032V119.758H27.2268V118.134H37.6756V119.758Z" fill="white"/>
<path d="M52.3374 127.866H49.6943V123.695H44.5404V127.866H41.8974V118.134H44.5404V122.078H49.6943V118.134H52.3374V127.866Z" fill="white"/>
<path d="M64.5605 127.866V118.134H69.0537C70.6102 118.134 71.7907 118.361 72.5954 118.816C73.4 119.266 73.8023 119.927 73.8023 120.801C73.8023 121.278 73.6408 121.699 73.3178 122.064C72.9948 122.425 72.5454 122.69 71.9698 122.86C72.6277 122.984 73.1445 123.236 73.5204 123.615C73.9022 123.994 74.0931 124.457 74.0931 125.005C74.0931 125.941 73.6996 126.65 72.9125 127.131C72.1255 127.612 71.0037 127.857 69.5471 127.866H64.5605ZM67.2036 123.628V126.255H69.4678C70.0904 126.255 70.5749 126.144 70.9214 125.921C71.2738 125.694 71.4501 125.382 71.4501 124.985C71.4501 124.094 70.8421 123.642 69.6264 123.628H67.2036ZM67.2036 122.211H69.1594C70.4927 122.193 71.1593 121.79 71.1593 121.001C71.1593 120.56 70.989 120.244 70.6483 120.052C70.3135 119.856 69.782 119.758 69.0537 119.758H67.2036V122.211Z" fill="white"/>
<path d="M89.3275 123.221C89.3275 124.179 89.1043 125.019 88.658 125.741C88.2116 126.463 87.5714 127.02 86.7374 127.412C85.9092 127.804 84.9577 128 83.8829 128C82.8198 128 81.8712 127.806 81.0372 127.418C80.2032 127.031 79.5571 126.478 79.099 125.761C78.6409 125.039 78.4089 124.21 78.403 123.274V122.793C78.403 121.835 78.6291 120.992 79.0814 120.266C79.5395 119.535 80.1826 118.976 81.0108 118.588C81.8448 118.196 82.7963 118 83.8653 118C84.9342 118 85.8828 118.196 86.7109 118.588C87.545 118.976 88.1881 119.535 88.6403 120.266C89.0985 120.992 89.3275 121.832 89.3275 122.786V123.221ZM86.6493 122.779C86.6493 121.759 86.4084 120.984 85.9268 120.453C85.4452 119.923 84.758 119.658 83.8653 119.658C82.9784 119.658 82.2941 119.921 81.8125 120.447C81.3309 120.968 81.0871 121.734 81.0813 122.746V123.221C81.0813 124.214 81.3221 124.985 81.8037 125.533C82.2853 126.082 82.9784 126.356 83.8829 126.356C84.7698 126.356 85.4511 126.093 85.9268 125.567C86.4026 125.037 86.6434 124.266 86.6493 123.254V122.779Z" fill="white"/>
<path d="M97.4082 118.134L100.703 125.193L103.981 118.134H107.452V127.866H104.8V125.206L105.064 120.614L101.602 127.866H99.7869L96.3333 120.62L96.5976 125.206V127.866H93.9546V118.134H97.4082Z" fill="white"/>
<path d="M112.466 127.866V118.134H116.96C118.516 118.134 119.697 118.361 120.501 118.816C121.306 119.266 121.708 119.927 121.708 120.801C121.708 121.278 121.547 121.699 121.224 122.064C120.901 122.425 120.451 122.69 119.876 122.86C120.534 122.984 121.05 123.236 121.426 123.615C121.808 123.994 121.999 124.457 121.999 125.005C121.999 125.941 121.605 126.65 120.818 127.131C120.031 127.612 118.91 127.857 117.453 127.866H112.466ZM115.109 123.628V126.255H117.374C117.996 126.255 118.481 126.144 118.827 125.921C119.18 125.694 119.356 125.382 119.356 124.985C119.356 124.094 118.748 123.642 117.532 123.628H115.109ZM115.109 122.211H117.065C118.399 122.193 119.065 121.79 119.065 121.001C119.065 120.56 118.895 120.244 118.554 120.052C118.219 119.856 117.688 119.758 116.96 119.758H115.109V122.211Z" fill="white"/>
<path d="M133.348 125.313C133.348 124.934 133.172 124.644 132.82 124.444C132.467 124.239 131.833 124.025 130.917 123.802C130 123.575 129.275 123.352 128.74 123.134C127.284 122.537 126.556 121.732 126.556 120.721C126.556 120.195 126.749 119.727 127.137 119.317C127.531 118.902 128.091 118.579 128.82 118.348C129.554 118.116 130.376 118 131.287 118C132.203 118 133.019 118.127 133.736 118.381C134.452 118.631 135.007 118.985 135.401 119.444C135.8 119.903 136 120.424 136 121.008H133.357C133.357 120.562 133.172 120.217 132.802 119.972C132.432 119.722 131.912 119.598 131.243 119.598C130.596 119.598 130.094 119.702 129.736 119.912C129.378 120.117 129.199 120.389 129.199 120.727C129.199 121.044 129.407 121.309 129.824 121.523C130.247 121.737 130.867 121.937 131.683 122.124C133.187 122.467 134.282 122.893 134.969 123.401C135.656 123.909 136 124.542 136 125.299C136 126.142 135.58 126.803 134.74 127.285C133.9 127.762 132.77 128 131.348 128C130.362 128 129.463 127.864 128.652 127.592C127.842 127.316 127.222 126.939 126.793 126.463C126.371 125.986 126.159 125.433 126.159 124.805H128.811C128.811 125.879 129.657 126.416 131.348 126.416C131.977 126.416 132.467 126.32 132.82 126.128C133.172 125.932 133.348 125.66 133.348 125.313Z" fill="white"/>
<defs>
<filter id="filter0_d" x="23" y="0" width="84" height="112" filterUnits="userSpaceOnUse" color-interpolation-filters="sRGB">
<feFlood flood-opacity="0" result="BackgroundImageFix"/>
<feColorMatrix in="SourceAlpha" type="matrix" values="0 0 0 0 0 0 0 0 0 0 0 0 0 0 0 0 0 0 127 0"/>
<feOffset dx="5" dy="5"/>
<feColorMatrix type="matrix" values="0 0 0 0 1 0 0 0 0 0.220833 0 0 0 0 0.740278 0 0 0 1 0"/>
<feBlend mode="normal" in2="BackgroundImageFix" result="effect1_dropShadow"/>
<feBlend mode="normal" in="SourceGraphic" in2="effect1_dropShadow" result="shape"/>
</filter>
</defs>
</svg>
